<svg xmlns="http://www.w3.org/2000/svg" xmlns:xlink="http://www.w3.org/1999/xlink" width="500" zoomAndPan="magnify" viewBox="0 0 375 374.999991" height="500" preserveAspectRatio="xMidYMid meet" version="1.0"><defs><g/><clipPath id="f327456bc0"><path d="M 25.878906 125.675781 L 120.289062 125.675781 L 120.289062 195.933594 L 25.878906 195.933594 Z M 25.878906 125.675781 " clip-rule="nonzero"/></clipPath><clipPath id="ae63e1cefd"><path d="M 43.128906 125.675781 L 102.890625 125.675781 C 112.417969 125.675781 120.140625 133.398438 120.140625 142.925781 L 120.140625 178.683594 C 120.140625 188.210938 112.417969 195.933594 102.890625 195.933594 L 43.128906 195.933594 C 33.601562 195.933594 25.878906 188.210938 25.878906 178.683594 L 25.878906 142.925781 C 25.878906 133.398438 33.601562 125.675781 43.128906 125.675781 Z M 43.128906 125.675781 " clip-rule="nonzero"/></clipPath><clipPath id="5dee4ecca3"><path d="M 37.746094 136.929688 L 108.375 136.929688 L 108.375 168.761719 L 37.746094 168.761719 Z M 37.746094 136.929688 " clip-rule="nonzero"/></clipPath><clipPath id="8824be6223"><path d="M 53.664062 136.929688 L 92.355469 136.929688 C 101.148438 136.929688 108.273438 144.054688 108.273438 152.84375 C 108.273438 161.636719 101.148438 168.761719 92.355469 168.761719 L 53.664062 168.761719 C 44.871094 168.761719 37.746094 161.636719 37.746094 152.84375 C 37.746094 144.054688 44.871094 136.929688 53.664062 136.929688 Z M 53.664062 136.929688 " clip-rule="nonzero"/></clipPath><clipPath id="548b55abb7"><path d="M 46.90625 142.394531 L 60.855469 142.394531 L 60.855469 155.820312 L 46.90625 155.820312 Z M 46.90625 142.394531 " clip-rule="nonzero"/></clipPath><clipPath id="1832ef8bc8"><path d="M 53.859375 142.394531 C 50.019531 142.394531 46.90625 145.398438 46.90625 149.105469 C 46.90625 152.8125 50.019531 155.820312 53.859375 155.820312 C 57.699219 155.820312 60.8125 152.8125 60.8125 149.105469 C 60.8125 145.398438 57.699219 142.394531 53.859375 142.394531 Z M 53.859375 142.394531 " clip-rule="nonzero"/></clipPath><clipPath id="ec054d92ad"><path d="M 84.210938 142.394531 L 98.160156 142.394531 L 98.160156 155.820312 L 84.210938 155.820312 Z M 84.210938 142.394531 " clip-rule="nonzero"/></clipPath><clipPath id="22288320a9"><path d="M 91.164062 142.394531 C 87.324219 142.394531 84.210938 145.398438 84.210938 149.105469 C 84.210938 152.8125 87.324219 155.820312 91.164062 155.820312 C 95.003906 155.820312 98.113281 152.8125 98.113281 149.105469 C 98.113281 145.398438 95.003906 142.394531 91.164062 142.394531 Z M 91.164062 142.394531 " clip-rule="nonzero"/></clipPath><clipPath id="b8c19e079c"><path d="M 70.71875 120.832031 L 76.007812 120.832031 L 76.007812 140.125 L 70.71875 140.125 Z M 70.71875 120.832031 " clip-rule="nonzero"/></clipPath><clipPath id="db9f0646eb"><path d="M 67.554688 112.875 L 78.496094 112.875 L 78.496094 123.402344 L 67.554688 123.402344 Z M 67.554688 112.875 " clip-rule="nonzero"/></clipPath><clipPath id="c14528af04"><path d="M 73.011719 112.875 C 69.996094 112.875 67.554688 115.230469 67.554688 118.140625 C 67.554688 121.046875 69.996094 123.402344 73.011719 123.402344 C 76.023438 123.402344 78.464844 121.046875 78.464844 118.140625 C 78.464844 115.230469 76.023438 112.875 73.011719 112.875 Z M 73.011719 112.875 " clip-rule="nonzero"/></clipPath><clipPath id="141f47febe"><path d="M 70.71875 162.875 L 76.714844 162.875 L 76.714844 176.699219 L 70.71875 176.699219 Z M 70.71875 162.875 " clip-rule="nonzero"/></clipPath><clipPath id="f49481e353"><path d="M 47.386719 174.386719 L 98.609375 174.386719 L 98.609375 211.324219 L 47.386719 211.324219 Z M 47.386719 174.386719 " clip-rule="nonzero"/></clipPath><clipPath id="c62edea9d4"><path d="M 98.609375 191.636719 L 98.609375 194.074219 C 98.609375 203.601562 90.886719 211.324219 81.359375 211.324219 L 64.648438 211.324219 C 55.121094 211.324219 47.398438 203.601562 47.398438 194.074219 L 47.398438 191.636719 C 47.398438 182.109375 55.121094 174.386719 64.648438 174.386719 L 81.359375 174.386719 C 90.886719 174.386719 98.609375 182.109375 98.609375 191.636719 Z M 98.609375 191.636719 " clip-rule="nonzero"/></clipPath></defs><g clip-path="url(#f327456bc0)"><g clip-path="url(#ae63e1cefd)"><path fill="#fed750" d="M 25.878906 125.675781 L 120.015625 125.675781 L 120.015625 195.933594 L 25.878906 195.933594 Z M 25.878906 125.675781 " fill-opacity="1" fill-rule="nonzero"/></g></g><g clip-path="url(#5dee4ecca3)"><g clip-path="url(#8824be6223)"><path fill="#213d2f" d="M 37.746094 136.929688 L 108.25 136.929688 L 108.25 168.761719 L 37.746094 168.761719 Z M 37.746094 136.929688 " fill-opacity="1" fill-rule="nonzero"/></g></g><g clip-path="url(#548b55abb7)"><g clip-path="url(#1832ef8bc8)"><path fill="#fed750" d="M 46.90625 142.394531 L 60.800781 142.394531 L 60.800781 155.820312 L 46.90625 155.820312 Z M 46.90625 142.394531 " fill-opacity="1" fill-rule="nonzero"/></g></g><g clip-path="url(#ec054d92ad)"><g clip-path="url(#22288320a9)"><path fill="#fed750" d="M 84.210938 142.394531 L 98.105469 142.394531 L 98.105469 155.820312 L 84.210938 155.820312 Z M 84.210938 142.394531 " fill-opacity="1" fill-rule="nonzero"/></g></g><g clip-path="url(#b8c19e079c)"><path fill="#213d2f" d="M 70.71875 120.832031 L 76.007812 120.832031 L 76.007812 140.121094 L 70.71875 140.121094 Z M 70.71875 120.832031 " fill-opacity="1" fill-rule="nonzero"/></g><g clip-path="url(#db9f0646eb)"><g clip-path="url(#c14528af04)"><path fill="#213d2f" d="M 67.554688 112.875 L 78.457031 112.875 L 78.457031 123.402344 L 67.554688 123.402344 Z M 67.554688 112.875 " fill-opacity="1" fill-rule="nonzero"/></g></g><g clip-path="url(#141f47febe)"><path fill="#213d2f" d="M 70.71875 162.875 L 76.714844 162.875 L 76.714844 176.691406 L 70.71875 176.691406 Z M 70.71875 162.875 " fill-opacity="1" fill-rule="nonzero"/></g><g clip-path="url(#f49481e353)"><g clip-path="url(#c62edea9d4)"><path fill="#213d2f" d="M 98.609375 174.386719 L 98.609375 211.324219 L 47.386719 211.324219 L 47.386719 174.386719 Z M 98.609375 174.386719 " fill-opacity="1" fill-rule="nonzero"/></g></g><g fill="#eeebeb" fill-opacity="1"><g transform="translate(165.670482, 145.174018)"><g><path d="M 10.75 0.453125 C 7.9375 0.453125 5.734375 -0.3125 4.140625 -1.84375 C 2.546875 -3.375 1.75 -5.503906 1.75 -8.234375 L 1.75 -17.78125 C 1.75 -20.539062 2.535156 -22.675781 4.109375 -24.1875 C 5.691406 -25.695312 7.90625 -26.453125 10.75 -26.453125 C 13.570312 -26.453125 15.738281 -25.789062 17.25 -24.46875 C 18.769531 -23.15625 19.53125 -21.207031 19.53125 -18.625 L 19.53125 -15.890625 L 12.46875 -15.890625 L 12.46875 -18.859375 C 12.46875 -19.847656 12.320312 -20.53125 12.03125 -20.90625 C 11.75 -21.28125 11.320312 -21.46875 10.75 -21.46875 C 10.1875 -21.46875 9.773438 -21.234375 9.515625 -20.765625 C 9.265625 -20.296875 9.140625 -19.507812 9.140625 -18.40625 L 9.140625 -7.609375 C 9.140625 -6.492188 9.269531 -5.710938 9.53125 -5.265625 C 9.800781 -4.816406 10.222656 -4.59375 10.796875 -4.59375 C 11.367188 -4.59375 11.789062 -4.785156 12.0625 -5.171875 C 12.332031 -5.566406 12.46875 -6.226562 12.46875 -7.15625 L 12.46875 -10.625 L 19.53125 -10.625 L 19.53125 -7.46875 C 19.53125 -4.882812 18.765625 -2.914062 17.234375 -1.5625 C 15.703125 -0.21875 13.539062 0.453125 10.75 0.453125 Z M 10.75 0.453125 "/></g></g></g><g fill="#eeebeb" fill-opacity="1"><g transform="translate(186.775459, 145.174018)"><g><path d="M 2.34375 -36.453125 L 9.625 -36.453125 L 9.625 -23.71875 C 11.457031 -25.539062 13.585938 -26.453125 16.015625 -26.453125 C 17.515625 -26.453125 18.6875 -25.890625 19.53125 -24.765625 C 20.375 -23.640625 20.796875 -22.179688 20.796875 -20.390625 L 20.796875 0 L 13.5 0 L 13.5 -19.34375 C 13.5 -20.007812 13.382812 -20.5 13.15625 -20.8125 C 12.9375 -21.125 12.554688 -21.28125 12.015625 -21.28125 C 11.378906 -21.28125 10.582031 -20.96875 9.625 -20.34375 L 9.625 0 L 2.34375 0 Z M 2.34375 -36.453125 "/></g></g></g><g fill="#eeebeb" fill-opacity="1"><g transform="translate(209.72544, 145.174018)"><g><path d="M 7.828125 -36.453125 L 17.015625 -36.453125 L 23.8125 0 L 16.375 0 L 15.171875 -7.6875 L 9.8125 -7.6875 L 8.546875 0 L 0.9375 0 Z M 14.40625 -12.515625 L 12.46875 -26.734375 L 10.53125 -12.515625 Z M 14.40625 -12.515625 "/></g></g></g><g fill="#eeebeb" fill-opacity="1"><g transform="translate(234.565415, 145.174018)"><g><path d="M 2.75 -36.453125 L 10.796875 -36.453125 L 10.796875 0 L 2.75 0 Z M 2.75 -36.453125 "/></g></g></g><g fill="#eeebeb" fill-opacity="1"><g transform="translate(248.155399, 145.174018)"><g><path d="M 2.390625 -26.015625 L 9.71875 -26.015625 L 9.71875 -21.6875 C 10.613281 -23.28125 11.484375 -24.453125 12.328125 -25.203125 C 13.171875 -25.953125 14.160156 -26.328125 15.296875 -26.328125 C 15.722656 -26.328125 16.097656 -26.28125 16.421875 -26.1875 L 16.421875 -18.90625 C 15.523438 -19.257812 14.734375 -19.4375 14.046875 -19.4375 C 12.453125 -19.4375 11.007812 -18.597656 9.71875 -16.921875 L 9.71875 0 L 2.390625 0 Z M 2.390625 -26.015625 "/></g></g></g><g fill="#eeebeb" fill-opacity="1"><g transform="translate(265.435387, 145.174018)"><g><path d="M 2.609375 -36.453125 L 9.90625 -36.453125 L 9.90625 0 L 2.609375 0 Z M 2.609375 -36.453125 "/></g></g></g><g fill="#eeebeb" fill-opacity="1"><g transform="translate(277.810375, 145.174018)"><g><path d="M 2.296875 -35.5 L 9.671875 -35.5 L 9.671875 -30.421875 L 2.296875 -30.421875 Z M 2.34375 -26.015625 L 9.671875 -26.015625 L 9.671875 0 L 2.34375 0 Z M 2.34375 -26.015625 "/></g></g></g><g fill="#eeebeb" fill-opacity="1"><g transform="translate(289.780356, 145.174018)"><g><path d="M 10.796875 0.453125 C 7.953125 0.453125 5.734375 -0.300781 4.140625 -1.8125 C 2.546875 -3.332031 1.75 -5.472656 1.75 -8.234375 L 1.75 -17.78125 C 1.75 -20.539062 2.546875 -22.675781 4.140625 -24.1875 C 5.734375 -25.695312 7.953125 -26.453125 10.796875 -26.453125 C 13.679688 -26.453125 15.84375 -25.71875 17.28125 -24.25 C 18.71875 -22.78125 19.4375 -20.625 19.4375 -17.78125 L 19.4375 -12.5625 L 9 -12.5625 L 9 -7.5625 C 9 -5.695312 9.597656 -4.765625 10.796875 -4.765625 C 12.054688 -4.765625 12.6875 -5.609375 12.6875 -7.296875 L 12.6875 -10.03125 L 19.4375 -10.03125 L 19.4375 -7.515625 C 19.4375 -4.898438 18.675781 -2.914062 17.15625 -1.5625 C 15.644531 -0.21875 13.523438 0.453125 10.796875 0.453125 Z M 12.6875 -15.96875 L 12.6875 -18.578125 C 12.6875 -19.546875 12.515625 -20.226562 12.171875 -20.625 C 11.828125 -21.03125 11.351562 -21.234375 10.75 -21.234375 C 10.1875 -21.234375 9.753906 -21.007812 9.453125 -20.5625 C 9.148438 -20.113281 9 -19.320312 9 -18.1875 L 9 -15.96875 Z M 12.6875 -15.96875 "/></g></g></g><g fill="#213d2f" fill-opacity="1"><g transform="translate(116.130909, 171.101941)"><g><path d="M 4.796875 -0.890625 C 4.796875 -0.648438 4.707031 -0.441406 4.53125 -0.265625 C 4.351562 -0.0859375 4.144531 0 3.90625 0 L 0.875 0 C 0.632812 0 0.425781 -0.0859375 0.25 -0.265625 C 0.0703125 -0.441406 -0.015625 -0.648438 -0.015625 -0.890625 L -0.015625 -12.109375 C -0.015625 -12.347656 0.0703125 -12.554688 0.25 -12.734375 C 0.425781 -12.910156 0.632812 -13 0.875 -13 L 3.90625 -13 C 4.144531 -13 4.351562 -12.910156 4.53125 -12.734375 C 4.707031 -12.554688 4.796875 -12.347656 4.796875 -12.109375 L 4.796875 -8.234375 L 3.015625 -8.234375 L 3.015625 -11.21875 L 1.765625 -11.21875 L 1.765625 -1.78125 L 3.015625 -1.78125 L 3.015625 -3.15625 L 4.796875 -3.15625 Z M 4.796875 -0.890625 "/></g></g></g><g fill="#213d2f" fill-opacity="1"><g transform="translate(123.975421, 171.101941)"><g><path d="M 3.015625 0 L 3.015625 -5.09375 L 1.78125 -5.09375 L 1.78125 0 L 0 0 L 0 -13 L 1.78125 -13 L 1.78125 -6.875 L 3.015625 -6.875 L 3.015625 -13 L 4.796875 -13 L 4.796875 0 Z M 3.015625 0 "/></g></g></g><g fill="#213d2f" fill-opacity="1"><g transform="translate(131.819933, 171.101941)"><g><path d="M 3.015625 -6.875 L 3.015625 -11.234375 L 1.78125 -11.234375 L 1.78125 -6.875 Z M 1.78125 -5.09375 L 1.78125 0 L 0 0 L 0 -12.125 C 0 -12.363281 0.0859375 -12.570312 0.265625 -12.75 C 0.441406 -12.925781 0.648438 -13.015625 0.890625 -13.015625 L 3.90625 -13.015625 C 4.144531 -13.015625 4.351562 -12.925781 4.53125 -12.75 C 4.707031 -12.570312 4.796875 -12.363281 4.796875 -12.125 L 4.796875 0 L 3.015625 0 L 3.015625 -5.09375 Z M 1.78125 -5.09375 "/></g></g></g><g fill="#213d2f" fill-opacity="1"><g transform="translate(139.664446, 171.101941)"><g><path d="M 3.03125 -11.234375 L 3.03125 0 L 1.25 0 L 1.25 -11.234375 L 0 -11.234375 L 0 -13.015625 L 4.28125 -13.015625 L 4.28125 -11.234375 Z M 3.03125 -11.234375 "/></g></g></g><g fill="#213d2f" fill-opacity="1"><g transform="translate(146.954423, 171.101941)"><g/></g></g><g fill="#213d2f" fill-opacity="1"><g transform="translate(151.491548, 171.101941)"><g><path d="M 4.796875 -0.890625 C 4.796875 -0.648438 4.707031 -0.441406 4.53125 -0.265625 C 4.351562 -0.0859375 4.144531 0 3.90625 0 L 0.875 0 C 0.632812 0 0.425781 -0.0859375 0.25 -0.265625 C 0.0703125 -0.441406 -0.015625 -0.648438 -0.015625 -0.890625 L -0.015625 -3.15625 L 1.765625 -3.15625 L 1.765625 -1.78125 L 3.015625 -1.78125 L 3.015625 -5.984375 L 0.875 -5.984375 C 0.632812 -5.984375 0.425781 -6.070312 0.25 -6.25 C 0.0703125 -6.425781 -0.015625 -6.632812 -0.015625 -6.875 L -0.015625 -12.109375 C -0.015625 -12.347656 0.0703125 -12.554688 0.25 -12.734375 C 0.425781 -12.910156 0.632812 -13 0.875 -13 L 3.90625 -13 C 4.144531 -13 4.351562 -12.910156 4.53125 -12.734375 C 4.707031 -12.554688 4.796875 -12.347656 4.796875 -12.109375 L 4.796875 -8.234375 L 3.015625 -8.234375 L 3.015625 -11.21875 L 1.765625 -11.21875 L 1.765625 -7.765625 L 3.90625 -7.765625 C 4.144531 -7.765625 4.351562 -7.675781 4.53125 -7.5 C 4.707031 -7.320312 4.796875 -7.113281 4.796875 -6.875 Z M 4.796875 -0.890625 "/></g></g></g><g fill="#213d2f" fill-opacity="1"><g transform="translate(159.33606, 171.101941)"><g><path d="M 4.390625 0 L 4.390625 -11.234375 L 3.984375 -11.234375 L 3.984375 0 L 2.203125 0 L 2.203125 -11.234375 L 1.78125 -11.234375 L 1.78125 0 L 0 0 L 0 -12.125 C 0 -12.363281 0.0859375 -12.570312 0.265625 -12.75 C 0.441406 -12.925781 0.648438 -13.015625 0.890625 -13.015625 L 5.296875 -13.015625 C 5.515625 -13.015625 5.71875 -12.925781 5.90625 -12.75 C 6.09375 -12.570312 6.1875 -12.363281 6.1875 -12.125 L 6.1875 0 Z M 4.390625 0 "/></g></g></g><g fill="#213d2f" fill-opacity="1"><g transform="translate(168.566898, 171.101941)"><g><path d="M 3.015625 -6.875 L 3.015625 -11.234375 L 1.78125 -11.234375 L 1.78125 -6.875 Z M 1.78125 -5.09375 L 1.78125 0 L 0 0 L 0 -12.125 C 0 -12.363281 0.0859375 -12.570312 0.265625 -12.75 C 0.441406 -12.925781 0.648438 -13.015625 0.890625 -13.015625 L 3.90625 -13.015625 C 4.144531 -13.015625 4.351562 -12.925781 4.53125 -12.75 C 4.707031 -12.570312 4.796875 -12.363281 4.796875 -12.125 L 4.796875 0 L 3.015625 0 L 3.015625 -5.09375 Z M 1.78125 -5.09375 "/></g></g></g><g fill="#213d2f" fill-opacity="1"><g transform="translate(176.411411, 171.101941)"><g><path d="M 3.90625 0 C 3.664062 0 3.457031 -0.0859375 3.28125 -0.265625 C 3.101562 -0.441406 3.015625 -0.648438 3.015625 -0.890625 L 3.015625 -2.8125 C 3.015625 -3.050781 2.925781 -3.257812 2.75 -3.4375 C 2.570312 -3.613281 2.363281 -3.703125 2.125 -3.703125 L 1.78125 -3.703125 L 1.78125 0 L 0 0 L 0 -12.125 C 0 -12.363281 0.0859375 -12.570312 0.265625 -12.75 C 0.441406 -12.925781 0.648438 -13.015625 0.890625 -13.015625 L 3.90625 -13.015625 C 4.144531 -13.015625 4.351562 -12.925781 4.53125 -12.75 C 4.707031 -12.570312 4.796875 -12.363281 4.796875 -12.125 L 4.796875 -5.984375 C 4.796875 -5.742188 4.707031 -5.535156 4.53125 -5.359375 C 4.351562 -5.179688 4.144531 -5.09375 3.90625 -5.09375 C 4.15625 -5.09375 4.363281 -5.003906 4.53125 -4.828125 C 4.707031 -4.660156 4.796875 -4.453125 4.796875 -4.203125 L 4.796875 -1.78125 L 5.34375 -1.78125 L 5.34375 0 Z M 3.015625 -11.234375 L 1.78125 -11.234375 L 1.78125 -6.875 L 3.015625 -6.875 Z M 3.015625 -11.234375 "/></g></g></g><g fill="#213d2f" fill-opacity="1"><g transform="translate(184.255923, 171.101941)"><g><path d="M 3.03125 -11.234375 L 3.03125 0 L 1.25 0 L 1.25 -11.234375 L 0 -11.234375 L 0 -13.015625 L 4.28125 -13.015625 L 4.28125 -11.234375 Z M 3.03125 -11.234375 "/></g></g></g><g fill="#213d2f" fill-opacity="1"><g transform="translate(191.545901, 171.101941)"><g><path d="M 1.78125 1.28125 L 0 1.28125 L 0 -0.890625 C 0 -1.140625 0.0820312 -1.347656 0.25 -1.515625 C 0.425781 -1.691406 0.640625 -1.78125 0.890625 -1.78125 C 1.140625 -1.78125 1.347656 -1.691406 1.515625 -1.515625 C 1.691406 -1.347656 1.78125 -1.140625 1.78125 -0.890625 Z M 1.78125 1.28125 "/></g></g></g><g fill="#213d2f" fill-opacity="1"><g transform="translate(196.41971, 171.101941)"><g/></g></g><g fill="#213d2f" fill-opacity="1"><g transform="translate(200.956835, 171.101941)"><g><path d="M 0.875 0 C 0.632812 0 0.425781 -0.0859375 0.25 -0.265625 C 0.0703125 -0.441406 -0.015625 -0.648438 -0.015625 -0.890625 L -0.015625 -13.015625 L 1.765625 -13.015625 L 1.765625 -1.78125 L 3.90625 -1.78125 L 3.90625 0 Z M 0.875 0 "/></g></g></g><g fill="#213d2f" fill-opacity="1"><g transform="translate(207.910138, 171.101941)"><g><path d="M 0 0 L 0 -13 L 1.78125 -13 L 1.78125 0 Z M 0 0 "/></g></g></g><g fill="#213d2f" fill-opacity="1"><g transform="translate(212.764138, 171.101941)"><g><path d="M 4.796875 -3.15625 C 4.796875 -2.707031 4.632812 -2.101562 4.3125 -1.34375 C 3.9375 -0.445312 3.53125 0 3.09375 0 L 1.703125 0 C 1.265625 0 0.851562 -0.445312 0.46875 -1.34375 C 0.15625 -2.101562 0 -2.707031 0 -3.15625 L 0 -13.015625 L 1.78125 -13.015625 L 1.78125 -3.3125 L 2.34375 -1.78125 L 2.453125 -1.78125 L 3.015625 -3.3125 L 3.015625 -13.015625 L 4.796875 -13.015625 Z M 4.796875 -3.15625 "/></g></g></g><g fill="#213d2f" fill-opacity="1"><g transform="translate(220.608651, 171.101941)"><g><path d="M 1.765625 -5.09375 L 1.765625 -1.78125 L 3.015625 -1.78125 L 3.015625 -3.15625 L 4.796875 -3.15625 L 4.796875 -0.890625 C 4.796875 -0.648438 4.707031 -0.441406 4.53125 -0.265625 C 4.351562 -0.0859375 4.144531 0 3.90625 0 L 0.875 0 C 0.632812 0 0.425781 -0.0859375 0.25 -0.265625 C 0.0703125 -0.441406 -0.015625 -0.648438 -0.015625 -0.890625 L -0.015625 -12.109375 C -0.015625 -12.347656 0.0703125 -12.554688 0.25 -12.734375 C 0.425781 -12.910156 0.632812 -13 0.875 -13 L 3.90625 -13 C 4.144531 -13 4.351562 -12.910156 4.53125 -12.734375 C 4.707031 -12.554688 4.796875 -12.347656 4.796875 -12.109375 L 4.796875 -8.234375 L 3.015625 -8.234375 L 3.015625 -11.21875 L 1.765625 -11.21875 L 1.765625 -6.875 L 3.078125 -6.875 L 3.078125 -5.09375 Z M 1.765625 -5.09375 "/></g></g></g><g fill="#213d2f" fill-opacity="1"><g transform="translate(228.453163, 171.101941)"><g/></g></g><g fill="#213d2f" fill-opacity="1"><g transform="translate(232.990287, 171.101941)"><g><path d="M 4.796875 -0.890625 C 4.796875 -0.648438 4.707031 -0.441406 4.53125 -0.265625 C 4.351562 -0.0859375 4.144531 0 3.90625 0 L 0.875 0 C 0.632812 0 0.425781 -0.0859375 0.25 -0.265625 C 0.0703125 -0.441406 -0.015625 -0.648438 -0.015625 -0.890625 L -0.015625 -3.15625 L 1.765625 -3.15625 L 1.765625 -1.78125 L 3.015625 -1.78125 L 3.015625 -5.984375 L 0.875 -5.984375 C 0.632812 -5.984375 0.425781 -6.070312 0.25 -6.25 C 0.0703125 -6.425781 -0.015625 -6.632812 -0.015625 -6.875 L -0.015625 -12.109375 C -0.015625 -12.347656 0.0703125 -12.554688 0.25 -12.734375 C 0.425781 -12.910156 0.632812 -13 0.875 -13 L 3.90625 -13 C 4.144531 -13 4.351562 -12.910156 4.53125 -12.734375 C 4.707031 -12.554688 4.796875 -12.347656 4.796875 -12.109375 L 4.796875 -8.234375 L 3.015625 -8.234375 L 3.015625 -11.21875 L 1.765625 -11.21875 L 1.765625 -7.765625 L 3.90625 -7.765625 C 4.144531 -7.765625 4.351562 -7.675781 4.53125 -7.5 C 4.707031 -7.320312 4.796875 -7.113281 4.796875 -6.875 Z M 4.796875 -0.890625 "/></g></g></g><g fill="#213d2f" fill-opacity="1"><g transform="translate(240.8348, 171.101941)"><g><path d="M 4.390625 0 L 4.390625 -11.234375 L 3.984375 -11.234375 L 3.984375 0 L 2.203125 0 L 2.203125 -11.234375 L 1.78125 -11.234375 L 1.78125 0 L 0 0 L 0 -12.125 C 0 -12.363281 0.0859375 -12.570312 0.265625 -12.75 C 0.441406 -12.925781 0.648438 -13.015625 0.890625 -13.015625 L 5.296875 -13.015625 C 5.515625 -13.015625 5.71875 -12.925781 5.90625 -12.75 C 6.09375 -12.570312 6.1875 -12.363281 6.1875 -12.125 L 6.1875 0 Z M 4.390625 0 "/></g></g></g><g fill="#213d2f" fill-opacity="1"><g transform="translate(250.065638, 171.101941)"><g><path d="M 3.015625 -6.875 L 3.015625 -11.234375 L 1.78125 -11.234375 L 1.78125 -6.875 Z M 1.78125 -5.09375 L 1.78125 0 L 0 0 L 0 -12.125 C 0 -12.363281 0.0859375 -12.570312 0.265625 -12.75 C 0.441406 -12.925781 0.648438 -13.015625 0.890625 -13.015625 L 3.90625 -13.015625 C 4.144531 -13.015625 4.351562 -12.925781 4.53125 -12.75 C 4.707031 -12.570312 4.796875 -12.363281 4.796875 -12.125 L 4.796875 0 L 3.015625 0 L 3.015625 -5.09375 Z M 1.78125 -5.09375 "/></g></g></g><g fill="#213d2f" fill-opacity="1"><g transform="translate(257.91015, 171.101941)"><g><path d="M 3.90625 0 C 3.664062 0 3.457031 -0.0859375 3.28125 -0.265625 C 3.101562 -0.441406 3.015625 -0.648438 3.015625 -0.890625 L 3.015625 -2.8125 C 3.015625 -3.050781 2.925781 -3.257812 2.75 -3.4375 C 2.570312 -3.613281 2.363281 -3.703125 2.125 -3.703125 L 1.78125 -3.703125 L 1.78125 0 L 0 0 L 0 -12.125 C 0 -12.363281 0.0859375 -12.570312 0.265625 -12.75 C 0.441406 -12.925781 0.648438 -13.015625 0.890625 -13.015625 L 3.90625 -13.015625 C 4.144531 -13.015625 4.351562 -12.925781 4.53125 -12.75 C 4.707031 -12.570312 4.796875 -12.363281 4.796875 -12.125 L 4.796875 -5.984375 C 4.796875 -5.742188 4.707031 -5.535156 4.53125 -5.359375 C 4.351562 -5.179688 4.144531 -5.09375 3.90625 -5.09375 C 4.15625 -5.09375 4.363281 -5.003906 4.53125 -4.828125 C 4.707031 -4.660156 4.796875 -4.453125 4.796875 -4.203125 L 4.796875 -1.78125 L 5.34375 -1.78125 L 5.34375 0 Z M 3.015625 -11.234375 L 1.78125 -11.234375 L 1.78125 -6.875 L 3.015625 -6.875 Z M 3.015625 -11.234375 "/></g></g></g><g fill="#213d2f" fill-opacity="1"><g transform="translate(265.754663, 171.101941)"><g><path d="M 3.03125 -11.234375 L 3.03125 0 L 1.25 0 L 1.25 -11.234375 L 0 -11.234375 L 0 -13.015625 L 4.28125 -13.015625 L 4.28125 -11.234375 Z M 3.03125 -11.234375 "/></g></g></g></svg>