<svg xmlns="http://www.w3.org/2000/svg" xmlns:xlink="http://www.w3.org/1999/xlink" width="500" zoomAndPan="magnify" viewBox="0 0 375 374.999991" height="500" preserveAspectRatio="xMidYMid meet" version="1.0"><defs><clipPath id="a0eb957738"><path d="M 140.371094 113.851562 L 234.78125 113.851562 L 234.78125 184.109375 L 140.371094 184.109375 Z M 140.371094 113.851562 " clip-rule="nonzero"/></clipPath><clipPath id="730f0de99a"><path d="M 157.621094 113.851562 L 217.378906 113.851562 C 226.90625 113.851562 234.628906 121.574219 234.628906 131.101562 L 234.628906 166.859375 C 234.628906 176.386719 226.90625 184.109375 217.378906 184.109375 L 157.621094 184.109375 C 148.09375 184.109375 140.371094 176.386719 140.371094 166.859375 L 140.371094 131.101562 C 140.371094 121.574219 148.09375 113.851562 157.621094 113.851562 Z M 157.621094 113.851562 " clip-rule="nonzero"/></clipPath><clipPath id="215fd05a15"><path d="M 152.234375 125.105469 L 222.867188 125.105469 L 222.867188 156.941406 L 152.234375 156.941406 Z M 152.234375 125.105469 " clip-rule="nonzero"/></clipPath><clipPath id="dc288c781d"><path d="M 168.152344 125.105469 L 206.847656 125.105469 C 215.636719 125.105469 222.765625 132.234375 222.765625 141.023438 C 222.765625 149.8125 215.636719 156.941406 206.847656 156.941406 L 168.152344 156.941406 C 159.363281 156.941406 152.234375 149.8125 152.234375 141.023438 C 152.234375 132.234375 159.363281 125.105469 168.152344 125.105469 Z M 168.152344 125.105469 " clip-rule="nonzero"/></clipPath><clipPath id="1e3815c72f"><path d="M 161.394531 130.574219 L 175.34375 130.574219 L 175.34375 143.996094 L 161.394531 143.996094 Z M 161.394531 130.574219 " clip-rule="nonzero"/></clipPath><clipPath id="e6063887da"><path d="M 168.347656 130.574219 C 164.507812 130.574219 161.394531 133.578125 161.394531 137.285156 C 161.394531 140.992188 164.507812 143.996094 168.347656 143.996094 C 172.1875 143.996094 175.300781 140.992188 175.300781 137.285156 C 175.300781 133.578125 172.1875 130.574219 168.347656 130.574219 Z M 168.347656 130.574219 " clip-rule="nonzero"/></clipPath><clipPath id="1087beeb45"><path d="M 198.699219 130.574219 L 212.648438 130.574219 L 212.648438 143.996094 L 198.699219 143.996094 Z M 198.699219 130.574219 " clip-rule="nonzero"/></clipPath><clipPath id="b44f45667a"><path d="M 205.652344 130.574219 C 201.8125 130.574219 198.699219 133.578125 198.699219 137.285156 C 198.699219 140.992188 201.8125 143.996094 205.652344 143.996094 C 209.492188 143.996094 212.605469 140.992188 212.605469 137.285156 C 212.605469 133.578125 209.492188 130.574219 205.652344 130.574219 Z M 205.652344 130.574219 " clip-rule="nonzero"/></clipPath><clipPath id="c7dffeab85"><path d="M 185.210938 109.011719 L 190.496094 109.011719 L 190.496094 128.304688 L 185.210938 128.304688 Z M 185.210938 109.011719 " clip-rule="nonzero"/></clipPath><clipPath id="8625332f2d"><path d="M 182.046875 101.050781 L 192.988281 101.050781 L 192.988281 111.582031 L 182.046875 111.582031 Z M 182.046875 101.050781 " clip-rule="nonzero"/></clipPath><clipPath id="6e6e294ec2"><path d="M 187.5 101.050781 C 184.488281 101.050781 182.046875 103.410156 182.046875 106.316406 C 182.046875 109.226562 184.488281 111.582031 187.5 111.582031 C 190.511719 111.582031 192.953125 109.226562 192.953125 106.316406 C 192.953125 103.410156 190.511719 101.050781 187.5 101.050781 Z M 187.5 101.050781 " clip-rule="nonzero"/></clipPath><clipPath id="03a3e4885a"><path d="M 185.210938 151.050781 L 191.207031 151.050781 L 191.207031 164.878906 L 185.210938 164.878906 Z M 185.210938 151.050781 " clip-rule="nonzero"/></clipPath><clipPath id="510d857e1d"><path d="M 161.875 162.566406 L 213.097656 162.566406 L 213.097656 199.503906 L 161.875 199.503906 Z M 161.875 162.566406 " clip-rule="nonzero"/></clipPath><clipPath id="4c0da5fda0"><path d="M 213.097656 179.816406 L 213.097656 182.253906 C 213.097656 191.78125 205.375 199.503906 195.847656 199.503906 L 179.140625 199.503906 C 169.613281 199.503906 161.890625 191.78125 161.890625 182.253906 L 161.890625 179.816406 C 161.890625 170.289062 169.613281 162.566406 179.140625 162.566406 L 195.847656 162.566406 C 205.375 162.566406 213.097656 170.289062 213.097656 179.816406 Z M 213.097656 179.816406 " clip-rule="nonzero"/></clipPath></defs><g clip-path="url(#a0eb957738)"><g clip-path="url(#730f0de99a)"><path fill="#fed750" d="M 140.371094 113.851562 L 234.503906 113.851562 L 234.503906 184.109375 L 140.371094 184.109375 Z M 140.371094 113.851562 " fill-opacity="1" fill-rule="nonzero"/></g></g><g clip-path="url(#215fd05a15)"><g clip-path="url(#dc288c781d)"><path fill="#213d2f" d="M 152.234375 125.105469 L 222.742188 125.105469 L 222.742188 156.941406 L 152.234375 156.941406 Z M 152.234375 125.105469 " fill-opacity="1" fill-rule="nonzero"/></g></g><g clip-path="url(#1e3815c72f)"><g clip-path="url(#e6063887da)"><path fill="#fed750" d="M 161.394531 130.574219 L 175.292969 130.574219 L 175.292969 143.996094 L 161.394531 143.996094 Z M 161.394531 130.574219 " fill-opacity="1" fill-rule="nonzero"/></g></g><g clip-path="url(#1087beeb45)"><g clip-path="url(#b44f45667a)"><path fill="#fed750" d="M 198.699219 130.574219 L 212.597656 130.574219 L 212.597656 143.996094 L 198.699219 143.996094 Z M 198.699219 130.574219 " fill-opacity="1" fill-rule="nonzero"/></g></g><g clip-path="url(#c7dffeab85)"><path fill="#213d2f" d="M 185.210938 109.011719 L 190.496094 109.011719 L 190.496094 128.300781 L 185.210938 128.300781 Z M 185.210938 109.011719 " fill-opacity="1" fill-rule="nonzero"/></g><g clip-path="url(#8625332f2d)"><g clip-path="url(#6e6e294ec2)"><path fill="#213d2f" d="M 182.046875 101.050781 L 192.945312 101.050781 L 192.945312 111.582031 L 182.046875 111.582031 Z M 182.046875 101.050781 " fill-opacity="1" fill-rule="nonzero"/></g></g><g clip-path="url(#03a3e4885a)"><path fill="#213d2f" d="M 185.210938 151.050781 L 191.207031 151.050781 L 191.207031 164.871094 L 185.210938 164.871094 Z M 185.210938 151.050781 " fill-opacity="1" fill-rule="nonzero"/></g><g clip-path="url(#510d857e1d)"><g clip-path="url(#4c0da5fda0)"><path fill="#213d2f" d="M 213.097656 162.566406 L 213.097656 199.503906 L 161.875 199.503906 L 161.875 162.566406 Z M 213.097656 162.566406 " fill-opacity="1" fill-rule="nonzero"/></g></g></svg>